<svg xmlns="http://www.w3.org/2000/svg" version="1.1" xmlns:xlink="http://www.w3.org/1999/xlink" xmlns:svgjs="http://svgjs.dev/svgjs" width="1500" height="935" viewBox="0 0 1500 935"><g transform="matrix(1,0,0,1,-0.9090909090909918,0.3785425101214628)"><svg viewBox="0 0 396 247" data-background-color="#ffffff" preserveAspectRatio="xMidYMid meet" height="935" width="1500" xmlns="http://www.w3.org/2000/svg" xmlns:xlink="http://www.w3.org/1999/xlink"><g id="tight-bounds" transform="matrix(1,0,0,1,0.2400000000000091,-0.09999999999999432)"><svg viewBox="0 0 395.52 247.2" height="247.2" width="395.52"><g><svg></svg></g><g><svg viewBox="0 0 395.52 247.2" height="247.2" width="395.52"><g transform="matrix(1,0,0,1,75.54432,94.20103917525773)"><svg viewBox="0 0 244.43135999999998 58.79792164948453" height="58.79792164948453" width="244.43135999999998"><g><svg viewBox="0 0 244.43135999999998 58.79792164948453" height="58.79792164948453" width="244.43135999999998"><g><svg viewBox="0 0 244.43135999999998 58.79792164948453" height="58.79792164948453" width="244.43135999999998"><g id="textblocktransform"><svg viewBox="0 0 244.43135999999998 58.79792164948453" height="58.79792164948453" width="244.43135999999998" id="textblock"><g><svg viewBox="0 0 244.43135999999998 58.79792164948453" height="58.79792164948453" width="244.43135999999998"><g transform="matrix(1,0,0,1,0,0)"><svg width="244.43135999999998" viewBox="1.7999999999999998 -28 116.39 28" height="58.79792164948453" data-palette-color="#000000"><path d="M18.2-22Q18.2-20.85 18-20L18-20Q18.2-19.2 18.2-18L18.2-18Q18.2-16.85 18-16L18-16 16-16Q16.2-15.2 16.2-14L16.2-14Q16.2-12.85 16-12L16-12 6-12Q6.2-11.2 6.2-10L6.2-10Q6.2-8.85 6-8L6-8Q6.2-7.2 6.2-6L6.2-6Q6.2-4.85 6-4L6-4Q6.2-3.2 6.2-2L6.2-2Q6.2-0.85 6 0L6 0 2 0Q1.8-0.85 1.8-2L1.8-2Q1.8-3.2 2-4L2-4Q1.8-4.85 1.8-6L1.8-6Q1.8-7.2 2-8L2-8Q1.8-8.85 1.8-10L1.8-10Q1.8-11.2 2-12L2-12Q1.8-12.85 1.8-14L1.8-14Q1.8-15.2 2-16L2-16Q1.8-16.85 1.8-18L1.8-18Q1.8-19.2 2-20L2-20Q1.8-20.85 1.8-22L1.8-22Q1.8-23.2 2-24L2-24Q1.8-24.85 1.8-26L1.8-26Q1.8-27.2 2-28L2-28 16-28Q16.2-27.2 16.2-26L16.2-26Q16.2-24.85 16-24L16-24 18-24Q18.2-23.2 18.2-22L18.2-22ZM14-16Q13.8-16.85 13.8-18L13.8-18Q13.8-19.2 14-20L14-20Q13.8-20.85 13.8-22L13.8-22Q13.8-23.2 14-24L14-24 6-24Q6.2-23.2 6.2-22L6.2-22Q6.2-20.85 6-20L6-20Q6.2-19.2 6.2-18L6.2-18Q6.2-16.85 6-16L6-16 14-16ZM38.2-6Q38.2-4.85 38-4L38-4Q38.2-3.2 38.2-2L38.2-2Q38.2-0.85 38 0L38 0 34 0Q33.8-0.85 33.8-2L33.8-2Q33.8-3.2 34-4L34-4Q33.8-4.85 33.8-6L33.8-6Q33.8-7.2 34-8L34-8 26-8Q26.2-7.2 26.2-6L26.2-6Q26.2-4.85 26-4L26-4Q26.2-3.2 26.2-2L26.2-2Q26.2-0.85 26 0L26 0 22 0Q21.8-0.85 21.8-2L21.8-2Q21.8-3.2 22-4L22-4Q21.8-4.85 21.8-6L21.8-6Q21.8-7.2 22-8L22-8 23.5-8Q23.3-8.85 23.3-10L23.3-10Q23.3-11.2 23.5-12L23.5-12Q23.3-12.85 23.3-14L23.3-14Q23.3-15.2 23.5-16L23.5-16 24.5-16Q24.3-16.85 24.3-18L24.3-18Q24.3-19.2 24.5-20L24.5-20 26-20Q25.8-20.85 25.8-22L25.8-22Q25.8-23.2 26-24L26-24 27-24Q26.8-24.85 26.8-26L26.8-26Q26.8-27.2 27-28L27-28 33-28Q33.2-27.2 33.2-26L33.2-26Q33.2-24.85 33-24L33-24 34-24Q34.2-23.2 34.2-22L34.2-22Q34.2-20.85 34-20L34-20 35.5-20Q35.7-19.2 35.7-18L35.7-18Q35.7-16.85 35.5-16L35.5-16 36.5-16Q36.7-15.2 36.7-14L36.7-14Q36.7-12.85 36.5-12L36.5-12Q36.7-11.2 36.7-10L36.7-10Q36.7-8.85 36.5-8L36.5-8 38-8Q38.2-7.2 38.2-6L38.2-6ZM32.5-12Q32.3-12.85 32.3-14L32.3-14Q32.3-15.2 32.5-16L32.5-16 31.5-16Q31.3-16.85 31.3-18L31.3-18Q31.3-19.2 31.5-20L31.5-20 28.5-20Q28.7-19.2 28.7-18L28.7-18Q28.7-16.85 28.5-16L28.5-16 27.5-16Q27.7-15.2 27.7-14L27.7-14Q27.7-12.85 27.5-12L27.5-12 32.5-12ZM58-24Q58.2-23.2 58.2-22L58.2-22Q58.2-20.85 58-20L58-20Q58.2-19.2 58.2-18L58.2-18Q58.2-16.85 58-16L58-16Q58.2-15.2 58.2-14L58.2-14Q58.2-12.85 58-12L58-12Q58.2-11.2 58.2-10L58.2-10Q58.2-8.85 58-8L58-8Q58.2-7.2 58.2-6L58.2-6Q58.2-4.85 58-4L58-4Q58.2-3.2 58.2-2L58.2-2Q58.2-0.85 58 0L58 0 54 0Q53.8-0.85 53.8-2L53.8-2Q53.8-3.2 54-4L54-4 51.5-4Q51.3-4.85 51.3-6L51.3-6Q51.3-7.2 51.5-8L51.5-8 50-8Q49.8-8.85 49.8-10L49.8-10Q49.8-11.2 50-12L50-12 48-12Q47.8-12.85 47.8-14L47.8-14Q47.8-15.2 48-16L48-16 46-16Q46.2-15.2 46.2-14L46.2-14Q46.2-12.85 46-12L46-12Q46.2-11.2 46.2-10L46.2-10Q46.2-8.85 46-8L46-8Q46.2-7.2 46.2-6L46.2-6Q46.2-4.85 46-4L46-4Q46.2-3.2 46.2-2L46.2-2Q46.2-0.85 46 0L46 0 42 0Q41.8-0.85 41.8-2L41.8-2Q41.8-3.2 42-4L42-4Q41.8-4.85 41.8-6L41.8-6Q41.8-7.2 42-8L42-8Q41.8-8.85 41.8-10L41.8-10Q41.8-11.2 42-12L42-12Q41.8-12.85 41.8-14L41.8-14Q41.8-15.2 42-16L42-16Q41.8-16.85 41.8-18L41.8-18Q41.8-19.2 42-20L42-20Q41.8-20.85 41.8-22L41.8-22Q41.8-23.2 42-24L42-24Q41.8-24.85 41.8-26L41.8-26Q41.8-27.2 42-28L42-28 47-28Q47.2-27.2 47.2-26L47.2-26Q47.2-24.85 47-24L47-24 48.5-24Q48.7-23.2 48.7-22L48.7-22Q48.7-20.85 48.5-20L48.5-20 50-20Q50.2-19.2 50.2-18L50.2-18Q50.2-16.85 50-16L50-16 52-16Q52.2-15.2 52.2-14L52.2-14Q52.2-12.85 52-12L52-12 54-12Q53.8-12.85 53.8-14L53.8-14Q53.8-15.2 54-16L54-16Q53.8-16.85 53.8-18L53.8-18Q53.8-19.2 54-20L54-20Q53.8-20.85 53.8-22L53.8-22Q53.8-23.2 54-24L54-24Q53.8-24.85 53.8-26L53.8-26Q53.8-27.2 54-28L54-28 58-28Q58.2-27.2 58.2-26L58.2-26Q58.2-24.85 58-24L58-24ZM77.99-16Q78.19-15.2 78.19-14L78.19-14Q78.19-12.85 77.99-12L77.99-12Q78.19-11.2 78.19-10L78.19-10Q78.19-8.85 77.99-8L77.99-8 75.99-8Q76.19-7.2 76.19-6L76.19-6Q76.19-4.85 75.99-4L75.99-4 73.99-4Q74.19-3.2 74.19-2L74.19-2Q74.19-0.85 73.99 0L73.99 0 61.99 0Q61.79-0.85 61.79-2L61.79-2Q61.79-3.2 61.99-4L61.99-4Q61.79-4.85 61.79-6L61.79-6Q61.79-7.2 61.99-8L61.99-8Q61.79-8.85 61.79-10L61.79-10Q61.79-11.2 61.99-12L61.99-12Q61.79-12.85 61.79-14L61.79-14Q61.79-15.2 61.99-16L61.99-16Q61.79-16.85 61.79-18L61.79-18Q61.79-19.2 61.99-20L61.99-20Q61.79-20.85 61.79-22L61.79-22Q61.79-23.2 61.99-24L61.99-24Q61.79-24.85 61.79-26L61.79-26Q61.79-27.2 61.99-28L61.99-28 73.99-28Q74.19-27.2 74.19-26L74.19-26Q74.19-24.85 73.99-24L73.99-24 75.99-24Q76.19-23.2 76.19-22L76.19-22Q76.19-20.85 75.99-20L75.99-20 77.99-20Q78.19-19.2 78.19-18L78.19-18Q78.19-16.85 77.99-16L77.99-16ZM73.99-8Q73.79-8.85 73.79-10L73.79-10Q73.79-11.2 73.99-12L73.99-12Q73.79-12.85 73.79-14L73.79-14Q73.79-15.2 73.99-16L73.99-16Q73.79-16.85 73.79-18L73.79-18Q73.79-19.2 73.99-20L73.99-20 71.99-20Q71.79-20.85 71.79-22L71.79-22Q71.79-23.2 71.99-24L71.99-24 65.99-24Q66.19-23.2 66.19-22L66.19-22Q66.19-20.85 65.99-20L65.99-20Q66.19-19.2 66.19-18L66.19-18Q66.19-16.85 65.99-16L65.99-16Q66.19-15.2 66.19-14L66.19-14Q66.19-12.85 65.99-12L65.99-12Q66.19-11.2 66.19-10L66.19-10Q66.19-8.85 65.99-8L65.99-8Q66.19-7.2 66.19-6L66.19-6Q66.19-4.85 65.99-4L65.99-4 71.99-4Q71.79-4.85 71.79-6L71.79-6Q71.79-7.2 71.99-8L71.99-8 73.99-8ZM98.19-6Q98.19-4.85 97.99-4L97.99-4Q98.19-3.2 98.19-2L98.19-2Q98.19-0.85 97.99 0L97.99 0 93.99 0Q93.79-0.85 93.79-2L93.79-2Q93.79-3.2 93.99-4L93.99-4Q93.79-4.85 93.79-6L93.79-6Q93.79-7.2 93.99-8L93.99-8 85.99-8Q86.19-7.2 86.19-6L86.19-6Q86.19-4.85 85.99-4L85.99-4Q86.19-3.2 86.19-2L86.19-2Q86.19-0.85 85.99 0L85.99 0 81.99 0Q81.79-0.85 81.79-2L81.79-2Q81.79-3.2 81.99-4L81.99-4Q81.79-4.85 81.79-6L81.79-6Q81.79-7.2 81.99-8L81.99-8 83.49-8Q83.29-8.85 83.29-10L83.29-10Q83.29-11.2 83.49-12L83.49-12Q83.29-12.85 83.29-14L83.29-14Q83.29-15.2 83.49-16L83.49-16 84.49-16Q84.29-16.85 84.29-18L84.29-18Q84.29-19.2 84.49-20L84.49-20 85.99-20Q85.79-20.85 85.79-22L85.79-22Q85.79-23.2 85.99-24L85.99-24 86.99-24Q86.79-24.85 86.79-26L86.79-26Q86.79-27.2 86.99-28L86.99-28 92.99-28Q93.19-27.2 93.19-26L93.19-26Q93.19-24.85 92.99-24L92.99-24 93.99-24Q94.19-23.2 94.19-22L94.19-22Q94.19-20.85 93.99-20L93.99-20 95.49-20Q95.69-19.2 95.69-18L95.69-18Q95.69-16.85 95.49-16L95.49-16 96.49-16Q96.69-15.2 96.69-14L96.69-14Q96.69-12.85 96.49-12L96.49-12Q96.69-11.2 96.69-10L96.69-10Q96.69-8.85 96.49-8L96.49-8 97.99-8Q98.19-7.2 98.19-6L98.19-6ZM92.49-12Q92.29-12.85 92.29-14L92.29-14Q92.29-15.2 92.49-16L92.49-16 91.49-16Q91.29-16.85 91.29-18L91.29-18Q91.29-19.2 91.49-20L91.49-20 88.49-20Q88.69-19.2 88.69-18L88.69-18Q88.69-16.85 88.49-16L88.49-16 87.49-16Q87.69-15.2 87.69-14L87.69-14Q87.69-12.85 87.49-12L87.49-12 92.49-12ZM117.99-16Q118.19-15.2 118.19-14L118.19-14Q118.19-12.85 117.99-12L117.99-12Q118.19-11.2 118.19-10L118.19-10Q118.19-8.85 117.99-8L117.99-8 116.49-8Q116.69-7.2 116.69-6L116.69-6Q116.69-4.85 116.49-4L116.49-4 113.99-4Q114.19-3.2 114.19-2L114.19-2Q114.19-0.85 113.99 0L113.99 0 105.99 0Q105.79-0.85 105.79-2L105.79-2Q105.79-3.2 105.99-4L105.99-4 103.49-4Q103.29-4.85 103.29-6L103.29-6Q103.29-7.2 103.49-8L103.49-8 101.99-8Q101.79-8.85 101.79-10L101.79-10Q101.79-11.2 101.99-12L101.99-12Q101.79-12.85 101.79-14L101.79-14Q101.79-15.2 101.99-16L101.99-16Q101.79-16.85 101.79-18L101.79-18Q101.79-19.2 101.99-20L101.99-20 103.49-20Q103.29-20.85 103.29-22L103.29-22Q103.29-23.2 103.49-24L103.49-24 105.99-24Q105.79-24.85 105.79-26L105.79-26Q105.79-27.2 105.99-28L105.99-28 113.99-28Q114.19-27.2 114.19-26L114.19-26Q114.19-24.85 113.99-24L113.99-24 116.49-24Q116.69-23.2 116.69-22L116.69-22Q116.69-20.85 116.49-20L116.49-20 117.99-20Q118.19-19.2 118.19-18L118.19-18Q118.19-16.85 117.99-16L117.99-16ZM113.99-8Q113.79-8.85 113.79-10L113.79-10Q113.79-11.2 113.99-12L113.99-12Q113.79-12.85 113.79-14L113.79-14Q113.79-15.2 113.99-16L113.99-16Q113.79-16.85 113.79-18L113.79-18Q113.79-19.2 113.99-20L113.99-20 112.49-20Q112.29-20.85 112.29-22L112.29-22Q112.29-23.2 112.49-24L112.49-24 107.49-24Q107.69-23.2 107.69-22L107.69-22Q107.69-20.85 107.49-20L107.49-20 105.99-20Q106.19-19.2 106.19-18L106.19-18Q106.19-16.85 105.99-16L105.99-16Q106.19-15.2 106.19-14L106.19-14Q106.19-12.85 105.99-12L105.99-12Q106.19-11.2 106.19-10L106.19-10Q106.19-8.85 105.99-8L105.99-8 107.49-8Q107.69-7.2 107.69-6L107.69-6Q107.69-4.85 107.49-4L107.49-4 112.49-4Q112.29-4.85 112.29-6L112.29-6Q112.29-7.2 112.49-8L112.49-8 113.99-8Z" opacity="1" transform="matrix(1,0,0,1,0,0)" fill="#000000" class="wordmark-text-0" data-fill-palette-color="primary" id="text-0"></path></svg></g></svg></g></svg></g></svg></g></svg></g></svg></g><path d="M197.691 88.201L197.691 29.262 9.014 29.262 9.014 217.938 197.691 217.938 197.691 158.999 192.388 158.999 192.388 212.636 14.317 212.636 14.317 34.564 192.388 34.564 192.388 88.201Z" fill="#000000" stroke="transparent" data-fill-palette-color="tertiary"></path></svg></g><defs></defs></svg><rect width="395.52" height="247.2" fill="none" stroke="none" visibility="hidden"></rect></g></svg></g></svg>